HIERARCHY
ROOT hip
{
	OFFSET 0.000000 0.000000 0.000000 
	CHANNELS 6 Xposition Yposition Zposition Xrotation Zrotation Yrotation
	JOINT abdomen
	{
		OFFSET 0.000000 3.402643 0.000000 
		CHANNELS 3 Xrotation Zrotation Yrotation
		JOINT chest
		{
			OFFSET 0.000000 8.438565 -0.680529 
			CHANNELS 3 Xrotation Zrotation Yrotation
			JOINT neck
			{
				OFFSET 0.000000 10.207942 -0.272212 
				CHANNELS 3 Xrotation Zrotation Yrotation
				JOINT head
				{
					OFFSET 0.000000 3.130431 0.000000 
					CHANNELS 3 Xrotation Zrotation Yrotation
					End Site
					{
						OFFSET 0.000000 3.130435 0.000000 
					}
				}
			}
			JOINT lCollar
			{
				OFFSET 3.470700 6.669187 -0.816635 
				CHANNELS 3 Yrotation Zrotation Xrotation
				JOINT lShldr
				{
					OFFSET 3.198488 0.000000 0.000000 
					CHANNELS 3 Zrotation Yrotation Xrotation
					JOINT lForeArm
					{
						OFFSET 10.139888 0.000000 0.000000 
						CHANNELS 3 Yrotation Zrotation Xrotation
						JOINT lHand
						{
							OFFSET 8.370511 0.000000 0.000000 
							CHANNELS 3 Zrotation Yrotation Xrotation
							End Site
							{
								OFFSET 4.083176 0.000000 0.000000 
							}
						}
					}
				}
			}
			JOINT rCollar
			{
				OFFSET -3.470700 6.669187 -0.816635 
				CHANNELS 3 Yrotation Zrotation Xrotation
				JOINT rShldr
				{
					OFFSET -3.198488 0.000000 0.000000 
					CHANNELS 3 Zrotation Yrotation Xrotation
					JOINT rForeArm
					{
						OFFSET -10.139888 0.000000 0.000000 
						CHANNELS 3 Yrotation Zrotation Xrotation
						JOINT rHand
						{
							OFFSET -8.370511 0.000000 0.000000 
							CHANNELS 3 Zrotation Yrotation Xrotation
							End Site
							{
								OFFSET -4.083176 0.000000 0.000000 
							}
						}
					}
				}
			}
		}
	}
	JOINT lThigh
	{
		OFFSET 5.308129 -1.633274 1.361059 
		CHANNELS 3 Xrotation Zrotation Yrotation
		JOINT lShin
		{
			OFFSET -2.041588 -20.007561 0.000000 
			CHANNELS 3 Xrotation Zrotation Yrotation
			JOINT lFoot
			{
				OFFSET 0.000000 -19.190928 -1.224953 
				CHANNELS 3 Xrotation Yrotation Zrotation
				End Site
				{
					OFFSET 0.000000 -2.449906 4.627600 
				}
			}
		}
	}
	JOINT rThigh
	{
		OFFSET -5.308129 -1.633274 1.361059 
		CHANNELS 3 Xrotation Zrotation Yrotation
		JOINT rShin
		{
			OFFSET 2.041588 -20.007561 0.000000 
			CHANNELS 3 Xrotation Zrotation Yrotation
			JOINT rFoot
			{
				OFFSET 0.000000 -19.190928 -1.224953 
				CHANNELS 3 Xrotation Yrotation Zrotation
				End Site
				{
					OFFSET 0.000000 -2.449906 4.627600 
				}
			}
		}
	}
}
MOTION
Frames: 9
Frame Time: 0.033333
-0.434841 53.420292 -0.442635 -8.154297 -6.464844 154.530151 25.110022 -5.762671 -5.804621 -19.687502 10.693359 0.693359 51.063168 8.107644 2.471410 -61.123047 -14.140624 26.552736 2.000000 -2.000000 0.000000 -94.394531 -8.193360 -6.269531 -80.793175 -0.472335 -2.785632 -43.428307 9.742826 -72.926537 -2.000000 2.000000 0.000000 90.341797 14.560546 14.006362 78.466629 -0.039713 -2.727334 74.140976 -38.166378 -85.926666 -7.815810 4.349404 12.064904 8.354277 -5.242702 -0.946585 4.888487 7.354495 -3.969171 1.471502 -13.167698 -20.244852 0.302183 4.866935 0.180308 3.972233 -6.979129 10.820863 
-0.935146 53.428173 -0.851666 -7.958984 -6.269531 154.998932 25.292942 -5.519563 -5.867967 -19.687502 10.693359 0.693359 51.063168 8.107644 2.471410 -60.966801 -14.326170 25.839844 2.000000 -2.000000 0.000000 -93.417969 -9.267578 -7.120711 -81.320801 -0.453401 -2.796509 -44.396969 9.764052 -72.992226 -2.000000 2.000000 0.000000 90.781250 16.201174 14.123821 78.451714 -0.049607 -2.894129 69.985992 -38.250847 -87.305786 -7.831424 3.857067 11.918776 8.364697 -5.225499 -0.956202 4.130288 6.624812 -4.064513 0.789814 -14.244854 -20.056860 2.763098 5.201629 0.409415 4.166720 -7.478484 10.616515 
-1.444743 53.428173 -1.259187 -7.958984 -6.113281 155.506775 25.471161 -5.124456 -5.865005 -19.687502 10.693359 0.693359 51.063168 8.107644 2.471410 -60.820313 -14.707031 25.332033 2.000000 -2.000000 0.000000 -92.617188 -10.556642 -7.822266 -81.848427 -0.434468 -2.807385 -45.305500 9.832243 -73.275787 -2.000000 2.000000 0.000000 91.250000 18.037111 14.631931 78.463669 0.062151 -2.965890 65.899040 -38.383358 -88.054970 -7.742118 3.113701 12.315424 9.088634 -5.185359 -1.199410 3.176803 6.011237 -3.864402 -0.051289 -15.588462 -20.199669 5.054444 5.168428 0.443824 4.728008 -7.512885 10.653769 
-1.991915 53.412426 -1.635524 -7.958984 -5.947266 156.190384 25.650017 -4.720170 -5.857856 -19.853516 10.869141 0.693359 51.063168 8.107644 2.471410 -60.664059 -14.902343 24.597099 2.000000 -2.000000 0.000000 -91.845703 -11.845703 -8.320313 -82.551186 -0.609389 -2.787460 -45.677326 9.975396 -73.385864 -2.000000 2.000000 0.000000 91.455078 19.355469 14.358706 78.639450 0.052402 -2.966454 63.594971 -38.687225 -88.297974 -7.689802 2.467330 11.588722 9.077321 -5.234972 -0.997022 3.122974 6.119918 -3.968786 -1.094565 -16.727276 -19.747818 7.163173 5.149502 0.618381 6.158827 -8.039907 11.351486 
-2.525441 53.420292 -2.024920 -7.792968 -5.761718 156.678711 26.029552 -4.477011 -5.922367 -19.853516 10.869141 0.869141 51.063168 8.107644 2.471410 -60.507813 -15.097655 23.886719 2.000000 -2.000000 0.000000 -90.712891 -12.890625 -9.367413 -83.255516 -0.377667 -2.840015 -46.241352 9.941321 -73.812706 -2.000000 2.000000 0.000000 91.572266 21.044922 14.472655 78.801735 0.103802 -3.178616 62.235298 -38.877670 -87.709038 -7.741013 1.785532 11.443599 9.602145 -5.400009 -1.071604 2.354195 5.715517 -3.688493 -2.139768 -17.807417 -19.468912 9.287888 5.108849 0.802543 7.602181 -8.071751 10.324684 
-3.030907 53.396664 -2.415832 -7.792969 -5.595703 157.187500 26.187889 -4.170644 -5.765300 -19.853518 11.044923 0.898438 51.063168 8.107644 2.471410 -60.361332 -15.458982 23.369141 2.000000 -2.000000 0.000000 -89.785156 -13.935549 -10.000000 -83.773102 -0.358169 -2.841147 -46.253662 10.098267 -73.927422 -2.000000 2.000000 0.000000 91.914063 22.519531 14.423830 79.145073 -0.088604 -2.896385 61.576469 -38.959621 -86.751839 -7.442508 1.401796 11.983870 10.310385 -5.332249 -1.302099 1.842321 5.205358 -3.728338 -2.901291 -19.086851 -18.677401 11.236156 5.073216 0.649171 9.304440 -8.469209 9.985981 
-3.489101 53.380905 -2.824941 -7.783203 -5.419922 157.674866 26.382662 -3.927453 -5.829918 -19.853518 11.044923 0.898438 51.063168 8.107644 2.471410 -60.029297 -15.683591 22.604786 2.000000 -2.000000 0.000000 -89.150391 -15.361328 -10.822898 -84.302139 -0.156822 -2.911496 -46.107601 10.111428 -74.372643 -2.000000 2.000000 0.000000 91.777344 23.867186 14.111326 79.321121 -0.097789 -2.906695 62.084419 -38.957619 -85.846703 -7.148289 0.957323 11.467602 10.481038 -5.760225 -1.046474 1.376022 5.262256 -3.057015 -3.751191 -19.678658 -18.372129 13.340371 5.022217 1.130663 11.107575 -8.760743 9.463974 
-3.935921 53.349392 -3.236362 -7.617188 -5.234375 158.163162 26.741076 -3.539028 -5.809007 -19.843752 11.220704 0.937500 51.063168 8.107644 2.471410 -59.882816 -15.869139 22.060549 2.000000 -2.000000 0.000000 -88.535156 -16.259768 -11.484375 -85.005264 -0.127574 -2.913193 -45.596409 10.050089 -74.512016 -2.000000 2.000000 0.000000 91.767578 25.273436 13.754169 79.683823 -0.036471 -2.952039 61.672607 -39.170364 -84.120010 -6.908405 0.232316 11.486705 10.830627 -5.319324 -1.355656 1.115725 4.701524 -3.515309 -4.824787 -20.772930 -17.652225 15.444106 4.965696 1.463183 13.464203 -8.683518 9.024264 
-4.382903 53.325760 -3.603743 -7.617187 -5.068359 158.690536 26.926847 -3.295812 -5.873743 -19.843752 11.220704 0.937500 51.063168 8.107644 2.471410 -59.716801 -16.064451 21.318361 2.000000 -2.000000 0.000000 -87.900391 -17.529297 -11.985361 -85.533157 -0.109204 -2.933815 -45.286572 9.821651 -74.985550 -2.000000 2.000000 0.000000 91.777344 26.943357 13.281249 80.218208 0.026129 -2.850636 62.061947 -39.631870 -82.967087 -6.853827 -0.410131 10.784286 11.017569 -5.730778 -1.091813 0.809383 5.180532 -3.202701 -5.918180 -21.829147 -17.124828 17.228575 4.916142 1.487312 16.490669 -8.907263 8.981066 
